<?xml version="1.0" encoding="UTF-8"?>
<svg xmlns="http://www.w3.org/2000/svg" width="248" height="1285" viewBox="0 0 248 1285" role="img" aria-labelledby="title desc">
  <title id="title">Generative CV Sequencer AE Module Layout</title>
  <desc id="desc">Front panel layout for the generative CV sequencer AE modular module showing IO headers and controls.</desc>
  <defs>
    <style>
      text { font-family: 'Helvetica Neue', Arial, sans-serif; fill: #111; }
      .section-label { font-size: 20px; font-weight: bold; letter-spacing: 1px; }
      .jack-label { font-size: 18px; }
      .small-label { font-size: 16px; }
      .micro-label { font-size: 14px; text-transform: uppercase; letter-spacing: 1px; }
      .lane-label { font-size: 22px; font-weight: bold; }
    </style>
  </defs>
  <rect x="4" y="4" width="240" height="1277" rx="12" ry="12" fill="#f8f6f4" stroke="#111" stroke-width="3"/>
  <rect x="4" y="4" width="240" height="130" fill="#dfd9d2" stroke="none"/>
  <text x="124" y="60" text-anchor="middle" class="section-label">GEN CV SEQ</text>
  <text x="124" y="104" text-anchor="middle" class="micro-label">event-driven</text>

  <!-- Input headers left -->
  <g transform="translate(18,160)">
    <rect x="0" y="0" width="64" height="64" rx="8" fill="#e2e0dd" stroke="#111" stroke-width="2"/>
    <circle cx="32" cy="32" r="12" fill="#fff" stroke="#111" stroke-width="2"/>
    <text x="32" y="88" text-anchor="middle" class="jack-label">TRIG ↑</text>
  </g>
  <g transform="translate(18,300)">
    <rect x="0" y="0" width="64" height="64" rx="8" fill="#e2e0dd" stroke="#111" stroke-width="2"/>
    <circle cx="32" cy="32" r="12" fill="#fff" stroke="#111" stroke-width="2"/>
    <text x="32" y="88" text-anchor="middle" class="jack-label">TRIG ↓</text>
  </g>
  <g transform="translate(18,440)">
    <rect x="0" y="0" width="64" height="64" rx="8" fill="#e2e0dd" stroke="#111" stroke-width="2"/>
    <circle cx="32" cy="32" r="12" fill="#fff" stroke="#111" stroke-width="2"/>
    <text x="32" y="88" text-anchor="middle" class="jack-label">CV IN</text>
  </g>
  <g transform="translate(18,580)">
    <rect x="0" y="0" width="64" height="64" rx="8" fill="#e2e0dd" stroke="#111" stroke-width="2"/>
    <circle cx="32" cy="32" r="12" fill="#fff" stroke="#111" stroke-width="2"/>
    <text x="32" y="88" text-anchor="middle" class="jack-label">RESET</text>
  </g>

  <!-- Output headers right -->
  <g transform="translate(166,160)">
    <rect x="0" y="0" width="64" height="64" rx="8" fill="#e2e0dd" stroke="#111" stroke-width="2"/>
    <circle cx="32" cy="32" r="12" fill="#fff" stroke="#111" stroke-width="2"/>
    <text x="32" y="88" text-anchor="middle" class="jack-label">L1 OUT</text>
  </g>
  <g transform="translate(166,300)">
    <rect x="0" y="0" width="64" height="64" rx="8" fill="#e2e0dd" stroke="#111" stroke-width="2"/>
    <circle cx="32" cy="32" r="12" fill="#fff" stroke="#111" stroke-width="2"/>
    <text x="32" y="88" text-anchor="middle" class="jack-label">L2 OUT</text>
  </g>
  <g transform="translate(166,440)">
    <rect x="0" y="0" width="64" height="64" rx="8" fill="#e2e0dd" stroke="#111" stroke-width="2"/>
    <circle cx="32" cy="32" r="12" fill="#fff" stroke="#111" stroke-width="2"/>
    <text x="32" y="88" text-anchor="middle" class="jack-label">L3 OUT</text>
  </g>
  <g transform="translate(166,580)">
    <rect x="0" y="0" width="64" height="64" rx="8" fill="#e2e0dd" stroke="#111" stroke-width="2"/>
    <circle cx="32" cy="32" r="12" fill="#fff" stroke="#111" stroke-width="2"/>
    <text x="32" y="88" text-anchor="middle" class="jack-label">SUM</text>
  </g>

  <!-- Lane stacks -->
  <g transform="translate(80,200)">
    <text x="44" y="0" text-anchor="middle" class="lane-label">LANE 1</text>
    <circle cx="44" cy="50" r="30" fill="#fff" stroke="#111" stroke-width="2"/>
    <text x="44" y="110" text-anchor="middle" class="small-label">ΔV</text>
    <rect x="24" y="128" width="40" height="24" rx="6" fill="#d6d1ca" stroke="#111" stroke-width="2"/>
    <text x="44" y="150" text-anchor="middle" class="micro-label">ADD / SUB</text>
    <rect x="24" y="190" width="40" height="24" rx="6" fill="#d6d1ca" stroke="#111" stroke-width="2"/>
    <text x="44" y="212" text-anchor="middle" class="micro-label">RESET</text>
  </g>

  <g transform="translate(80,500)">
    <text x="44" y="0" text-anchor="middle" class="lane-label">LANE 2</text>
    <circle cx="44" cy="50" r="30" fill="#fff" stroke="#111" stroke-width="2"/>
    <text x="44" y="110" text-anchor="middle" class="small-label">ΔV</text>
    <rect x="24" y="128" width="40" height="24" rx="6" fill="#d6d1ca" stroke="#111" stroke-width="2"/>
    <text x="44" y="150" text-anchor="middle" class="micro-label">ADD / SUB</text>
    <rect x="24" y="190" width="40" height="24" rx="6" fill="#d6d1ca" stroke="#111" stroke-width="2"/>
    <text x="44" y="212" text-anchor="middle" class="micro-label">RESET</text>
    <rect x="14" y="250" width="60" height="28" rx="10" fill="#cdd2d5" stroke="#111" stroke-width="2"/>
    <text x="44" y="270" text-anchor="middle" class="micro-label">BOUNCE</text>
  </g>

  <g transform="translate(80,820)">
    <text x="44" y="0" text-anchor="middle" class="lane-label">LANE 3</text>
    <circle cx="44" cy="50" r="30" fill="#fff" stroke="#111" stroke-width="2"/>
    <text x="44" y="110" text-anchor="middle" class="small-label">ΔV</text>
    <rect x="24" y="128" width="40" height="24" rx="6" fill="#d6d1ca" stroke="#111" stroke-width="2"/>
    <text x="44" y="150" text-anchor="middle" class="micro-label">ADD / SUB</text>
    <rect x="4" y="190" width="80" height="24" rx="6" fill="#d6d1ca" stroke="#111" stroke-width="2"/>
    <text x="44" y="212" text-anchor="middle" class="micro-label">THRESHOLD</text>
    <rect x="14" y="248" width="60" height="28" rx="10" fill="#cdd2d5" stroke="#111" stroke-width="2"/>
    <text x="44" y="268" text-anchor="middle" class="micro-label">BOUNCE</text>
  </g>

  <!-- Global controls -->
  <g transform="translate(24,1120)">
    <circle cx="44" cy="40" r="32" fill="#fff" stroke="#111" stroke-width="2"/>
    <text x="44" y="98" text-anchor="middle" class="small-label">OFFSET</text>
  </g>
  <g transform="translate(120,1096)">
    <rect x="0" y="0" width="104" height="44" rx="12" fill="#cfc9c1" stroke="#111" stroke-width="2"/>
    <text x="52" y="28" text-anchor="middle" class="micro-label">WRAP ⇄ CLIP</text>
  </g>
  <g transform="translate(120,1160)">
    <rect x="0" y="0" width="104" height="44" rx="12" fill="#cfc9c1" stroke="#111" stroke-width="2"/>
    <text x="52" y="28" text-anchor="middle" class="micro-label">GLOBAL RESET</text>
  </g>

  <!-- Divider lines -->
  <line x1="4" y1="720" x2="244" y2="720" stroke="#bbb" stroke-width="1.4" stroke-dasharray="6 8"/>
  <line x1="4" y1="1010" x2="244" y2="1010" stroke="#bbb" stroke-width="1.4" stroke-dasharray="6 8"/>
</svg>
